<?xml version="1.0" encoding="UTF-8" standalone="no"?>
<!-- Created with Inkscape (http://www.inkscape.org/) -->

<svg
   version="1.1"
   id="svg1"
   width="2816"
   height="1536"
   viewBox="0 0 2816 1536"
   sodipodi:docname="vercel.svg"
   inkscape:version="1.4.2 (f4327f4, 2025-05-13)"
   xmlns:inkscape="http://www.inkscape.org/namespaces/inkscape"
   xmlns:sodipodi="http://sodipodi.sourceforge.net/DTD/sodipodi-0.dtd"
   xmlns="http://www.w3.org/2000/svg"
   xmlns:svg="http://www.w3.org/2000/svg">
  <defs
     id="defs1" />
  <sodipodi:namedview
     id="namedview1"
     pagecolor="#ffffff"
     bordercolor="#000000"
     borderopacity="0.25"
     inkscape:showpageshadow="2"
     inkscape:pageopacity="0.0"
     inkscape:pagecheckerboard="0"
     inkscape:deskcolor="#d1d1d1"
     inkscape:zoom="0.17792759"
     inkscape:cx="1244.8884"
     inkscape:cy="160.17752"
     inkscape:window-width="1600"
     inkscape:window-height="829"
     inkscape:window-x="-8"
     inkscape:window-y="-8"
     inkscape:window-maximized="1"
     inkscape:current-layer="g1" />
  <g
     inkscape:groupmode="layer"
     inkscape:label="Image"
     id="g1">
    <g
       id="g2"
       transform="matrix(2.463707,0,0,2.361944,-271.55484,-1063.5638)">
      <path
         id="path46"
         style="fill:#05113c;fill-opacity:0.00143475;stroke:#000000;stroke-width:2;stroke-dasharray:none"
         d="m 731.51367,517.18945 a 27.77058,28.267344 0 0 0 -27.1289,28.69141 27.77058,28.267344 0 0 0 27.97851,27.83398 27.77058,28.267344 0 0 0 27.5586,-28.26562 l -0.0137,-0.86524 a 27.77058,28.267344 0 0 0 -28.39453,-27.39453 z m 19.47266,27.40625 c 0.15524,0 0.31055,0.15358 0.31055,0.46094 v 0.30274 c -2e-5,0.61471 -0.6211,0.61469 -0.6211,0 v -0.30274 c 0,-0.30736 0.15531,-0.46094 0.31055,-0.46094 z" />
      <path
         id="path46-1"
         style="fill:#ffffff;fill-opacity:0.8967;stroke:#000000;stroke-width:2;stroke-dasharray:none"
         d="m 731.04628,977.48692 a 27.77058,28.267344 0 0 0 -27.13086,28.69148 27.77058,28.267344 0 0 0 27.98047,27.8339 27.77058,28.267344 0 0 0 27.55664,-28.2656 l -0.0117,-0.8652 a 27.77058,28.267344 0 0 0 -0.0156,-0.3867 c -0.0469,-0.2913 -0.11925,-0.5796 -0.19141,-0.8653 -0.0732,-0.2896 -0.0211,-0.5049 0.0879,-0.6289 a 27.77058,28.267344 0 0 0 -28.27539,-25.51368 z m 19.32813,27.83598 c 0.1396,0 0.30349,0.1594 0.38281,0.4551 0.0106,0.039 0.0126,0.083 0.0176,0.123 0.0772,0.6101 -0.53864,0.688 -0.61524,0.078 -0.009,-0.067 -0.0194,-0.1331 -0.0234,-0.2011 -0.0172,-0.2877 0.083,-0.4378 0.21094,-0.4532 0.009,-10e-4 0.018,0 0.0273,0 z" />
      <path
         id="path47"
         style="fill:#05113c;fill-opacity:0.00143475;stroke:#000000;stroke-width:2;stroke-dasharray:none"
         d="m 731.69833,987.41495 a 18.704941,18.704941 0 0 0 -18.27344,18.98635 18.704941,18.704941 0 0 0 18.84571,18.4179 18.704941,18.704941 0 0 0 18.5625,-18.705 l -0.002,-0.068 c -0.14117,-0.01 -0.28568,-0.1423 -0.32031,-0.418 -0.009,-0.067 -0.0194,-0.1331 -0.0234,-0.2011 -0.0172,-0.2877 0.083,-0.4378 0.21094,-0.4532 0.032,0 0.0655,9e-4 0.0996,0.014 a 18.704941,18.704941 0 0 0 -19.09961,-17.57225 z" />
      <path
         id="path47-2"
         style="fill:#05113c;fill-opacity:0.00143475;stroke:#000000;stroke-width:2;stroke-dasharray:none"
         d="m 731.61133,527.03125 a 18.704941,18.704941 0 0 0 -18.27344,18.98633 18.704941,18.704941 0 0 0 18.8457,18.41797 18.704941,18.704941 0 0 0 18.5625,-18.70508 v -0.0684 c -0.0426,-0.0747 -0.0703,-0.17479 -0.0703,-0.30273 v -0.30274 c 0,-0.10384 0.0174,-0.19102 0.0469,-0.25976 a 18.704941,18.704941 0 0 0 -19.11133,-17.76563 z" />
      <path
         style="fill:#092a52;fill-opacity:1;stroke:#000000;stroke-width:3.97413;stroke-dasharray:none"
         d="m 664.6727,1010.9289 v -89.90431 l 69.82852,-69.84932 69.82852,-69.84931 -4.1611,-5.84371 c -2.2886,-3.21406 -33.71144,-34.73319 -69.82852,-70.04252 l -65.66742,-64.1988 v -90.12111 -90.12111 h 37.70212 37.7021 L 876.7432,596.61578 c 75.16645,74.58939 147.6065,146.28793 160.9778,159.33008 l 24.3116,23.713 -13.3593,14.0412 c -7.3477,7.72266 -79.96802,79.98687 -161.37854,160.58713 L 739.27563,1100.8331 H 701.97417 664.6727 Z m 82.86343,20.4374 c 7.10291,-4.3308 11.5132,-11.5935 13.51276,-22.2521 1.13162,-6.032 8.7907,-14.36853 49.6843,-54.07878 l 48.34645,-46.94745 h 23.01386 23.01387 V 885.70483 863.3217 l 25.40302,-25.34663 25.40304,-25.34664 6.77978,6.99498 c 3.72888,3.84723 8.30272,6.99496 10.16406,6.99496 4.11845,0 44.28103,-40.45256 45.10873,-45.43432 0.6649,-4.00239 -40.00946,-45.9706 -44.55338,-45.9706 -1.49638,0 -6.13488,3.0845 -10.30777,6.85446 l -7.58705,6.85445 -24.21169,-24.26995 -24.21167,-24.26995 -0.0173,-12.88722 c -0.01,-7.08797 -0.58114,-17.58166 -1.27031,-23.3193 l -1.25304,-10.43208 h -22.84304 -22.84303 l -48.86701,-48.1179 -48.867,-48.1179 -0.0442,-11.3475 c -0.0478,-12.25366 -3.40789,-18.72 -13.72909,-26.42071 -7.0726,-5.27691 -21.73946,-5.29124 -30.64612,-0.03 -7.52584,4.44563 -14.29051,17.17117 -14.27996,26.86313 0.008,7.32815 6.15881,19.10388 12.18604,23.33007 3.08973,2.16646 3.70304,5.23949 3.70304,18.55439 v 15.95788 l -9.24186,8.36719 c -8.48866,7.68528 -9.30734,9.25003 -10.04536,19.19982 -1.68608,22.73132 17.11158,39.29753 36.15369,31.8619 3.31409,-1.2941 13.63449,7.93222 64.05883,57.26774 l 60.10828,58.81036 -59.07876,59.11514 -59.07876,59.11513 h -13.65887 c -13.21694,0 -13.90846,0.2496 -21.37335,7.71448 -7.21107,7.21107 -7.71399,8.47532 -7.70705,19.37387 0.009,13.63918 4.5749,22.73266 13.81414,27.51045 5.64435,2.91882 6.04907,3.86997 6.04907,14.2167 0,9.48458 -0.72435,11.65838 -5.00736,15.02741 -14.35619,11.29256 -14.66928,33.85959 -0.64587,46.55369 6.0298,5.4582 8.74166,6.3657 19.56267,6.5465 5.5957,0.093 11.3223,-1.302 15.30327,-3.7294 z"
         id="path58" />
      <path
         style="fill:#2adfda;fill-opacity:1;stroke:#000000;stroke-width:3.97413;stroke-dasharray:none"
         d="m 893.77611,771.10717 -16.29893,-1.12011 -61.46882,-60.05481 -61.46882,-60.05481 1.01322,-12.62253 c 0.96381,-12.00708 0.70469,-12.9739 -5.31453,-19.82942 -3.48026,-3.9638 -8.06103,-7.75703 -10.1795,-8.4294 -3.40375,-1.08031 -3.85174,-3.14249 -3.85174,-17.73025 v -16.50775 l 6.32023,-1.26405 c 6.08798,-1.2176 8.08673,0.47101 54.39047,45.95084 l 48.07024,47.21489 0.25377,23.34799 0.25377,23.348 h 23.02679 23.02679 l 20.53553,19.37386 c 11.29453,10.65563 22.49911,21.88557 24.89907,24.95541 l 4.36357,5.58155 -4.55686,4.85054 c -4.94838,5.26731 -7.39872,5.43764 -43.01425,2.99005 z"
         id="path59" />
      <path
         style="fill:#2adfda;fill-opacity:1;stroke:#000000;stroke-width:3.97413;stroke-dasharray:none"
         d="m 743.69834,978.949 c -9.23201,-4.21825 -9.3994,-4.45831 -9.43855,-13.53668 -0.0365,-8.46915 0.5404,-9.58465 6.89685,-13.33504 11.00844,-6.49514 15.33213,-15.08214 14.14519,-28.0928 l -0.99702,-10.92885 61.9886,-61.04125 61.98861,-61.04125 28.00768,-0.0609 c 25.71917,-0.056 28.30774,0.2706 31.67985,3.99673 3.62766,4.00855 3.37304,4.35751 -21.02315,28.81242 l -24.6953,24.75474 h -23.37782 -23.37781 v 22.37066 22.37066 l -45.22155,45.1895 c -24.87185,24.85422 -45.6615,45.11007 -46.19922,45.013 -0.53772,-0.0971 -5.20708,-2.10897 -10.37636,-4.47089 z"
         id="path60" />
      <path
         style="fill:#2adfda;fill-opacity:1;stroke:#000000;stroke-width:1.98706;stroke-dasharray:none"
         d="m 962.48383,793.31733 c -6.14748,-5.81722 -11.15527,-11.32263 -11.12842,-12.23424 0.0268,-0.91161 4.85625,-6.67098 10.73202,-12.79859 l 10.68321,-11.14111 11.68624,11.71676 11.68623,11.71676 -11.24102,11.6586 -11.24103,11.65859 z"
         id="path61" />
      <path
         style="fill:#2adfda;fill-opacity:1;stroke:#000000;stroke-width:3.97413;stroke-dasharray:none"
         d="m 721.21369,557.4616 c -8.04047,-8.04046 -6.43808,-21.00485 3.21303,-25.99564 7.7956,-4.03126 10.55674,-3.68006 17.589,2.2372 4.6555,3.91734 6.11365,6.78245 6.11365,12.0127 0,8.91862 -7.36771,16.62308 -15.89651,16.62308 -3.87154,0 -7.94471,-1.80288 -11.01917,-4.87734 z"
         id="path62" />
      <path
         style="fill:#2adfda;fill-opacity:1;stroke:#000000;stroke-width:3.97413;stroke-dasharray:none"
         d="m 725.27814,1020.9376 c -10.1888,-5.8432 -12.1215,-18.4456 -4.06445,-26.50269 6.64119,-6.6412 15.68003,-6.48518 22.0429,0.38047 7.0558,7.61332 6.56779,16.80742 -1.24087,23.37792 -6.6583,5.6026 -10.62078,6.2523 -16.73758,2.7443 z"
         id="path63" />
      <path
         style="fill:#2adfda;fill-opacity:1;stroke:#000000;stroke-width:1.98706;stroke-dasharray:none"
         d="m 719.65892,935.65354 c -5.45321,-4.60978 -6.35259,-10.68028 -2.29652,-15.50064 7.45456,-8.85925 20.33488,-4.74779 20.33488,6.49099 0,3.78613 -0.53209,5.02611 -3.378,7.87202 -2.80895,2.80895 -4.10608,3.37718 -7.69987,3.37308 -3.02805,-0.003 -5.11178,-0.67268 -6.96049,-2.23545 z"
         id="path64" />
      <path
         style="fill:#2adfda;fill-opacity:1;stroke:#000000;stroke-width:1.98706;stroke-dasharray:none"
         d="m 718.53334,643.06661 c -3.54758,-3.66757 -3.72416,-4.14414 -3.06827,-8.28114 0.90707,-5.72131 5.75557,-10.84757 10.25982,-10.84757 3.76575,0 7.66881,1.90725 10.8309,5.29257 1.99508,2.13593 2.2335,3.10662 1.63425,6.65355 -1.06352,6.29491 -4.96152,10.06396 -10.98385,10.62049 -4.6527,0.42997 -5.10492,0.25071 -8.67285,-3.4379 z"
         id="path65" />
      <path
         style="fill:#2adfda;fill-opacity:1;stroke:#000000;stroke-width:2.81013;stroke-dasharray:none"
         d="m 582.39986,927.17393 c -5.21838,-2.07474 -10.97457,-8.11525 -12.6919,-13.3188 -3.661,-11.09292 5.68001,-24.376 17.88144,-25.42772 8.4907,-0.73187 14.59383,2.77278 18.6399,10.70373 3.61643,7.08878 3.63789,13.58239 0.0643,19.4436 -5.25207,8.61407 -15.01701,12.12841 -23.89371,8.59919 z"
         id="path66" />
      <path
         style="fill:#2adfda;fill-opacity:1;stroke:#000000;stroke-width:2.81013;stroke-dasharray:none"
         d="m 527.60228,780.51416 v -18.96839 h 18.96839 18.96839 v 18.96839 18.96839 h -18.96839 -18.96839 z"
         id="path67" />
      <path
         style="fill:#2adfda;fill-opacity:1;stroke:#000000;stroke-width:2.81013;stroke-dasharray:none"
         d="m 677.63439,803.26096 -12.25301,-7.29107 -0.0413,-15.03991 -0.0413,-15.0399 13.30558,-7.94014 13.30558,-7.94014 13.03941,7.03695 13.0394,7.03695 0.39428,16.11162 0.39428,16.11162 -12.67754,7.20807 c -6.97265,3.96444 -13.47287,7.16959 -14.44494,7.12255 -0.97207,-0.047 -7.28125,-3.36651 -14.02041,-7.3766 z"
         id="path68" />
      <path
         style="fill:#135276;fill-opacity:1;stroke:#000000;stroke-width:1.98706;stroke-dasharray:none"
         d="m 525.74731,1019.7379 c -16.89689,-5.1913 -21.91823,-29.26524 -8.46525,-40.58517 4.36744,-3.67497 6.99615,-4.58552 15.97923,-5.53502 4.22566,-0.44664 8.08419,-1.06002 8.5745,-1.36305 1.86867,-1.1549 21.02817,-32.26656 21.58486,-35.05001 0.43728,-2.18643 -0.0117,-3.65737 -1.78143,-5.83623 -3.48997,-4.29679 -5.22908,-7.33052 -7.22303,-12.59998 l -1.78576,-4.71928 h -45.41638 -45.41639 l -3.68953,7.46525 c -4.45433,9.01271 -11.27498,16.13318 -19.16506,20.0075 -4.96288,2.43695 -6.93605,2.82997 -14.20827,2.82997 -7.42596,0 -9.24836,-0.38058 -15.10239,-3.15387 -7.83733,-3.71286 -14.3494,-9.86014 -17.73621,-16.74268 -2.06257,-4.19146 -2.43178,-6.37476 -2.43178,-14.3803 0,-8.54896 0.29831,-10.06827 3.16505,-16.11982 3.79855,-8.01856 10.16791,-14.51587 17.97398,-18.33502 7.72233,-3.77817 17.59914,-3.79759 27.23748,-0.0535 l 6.64818,2.58251 12.22893,-12.72005 c 6.72591,-6.99604 18.71171,-19.59642 26.63513,-28.00086 7.92341,-8.40444 16.91874,-17.51624 19.98962,-20.24845 6.60306,-5.87486 7.82927,-9.26599 7.82927,-21.65212 v -8.35304 l -9.09441,-0.64555 c -11.53636,-0.81887 -26.43836,-0.81651 -54.79374,0.009 l -22.48095,0.65425 -0.28247,9.37197 -0.28246,9.37195 -13.41267,7.80393 c -7.37698,4.29217 -13.91234,7.82798 -14.52304,7.85736 -0.61069,0.0294 -4.11062,2.06532 -7.77762,4.52431 -3.667,2.459 -7.27191,4.4709 -8.01091,4.4709 -1.44744,0 -21.36685,-11.16965 -35.52648,-19.92121 l -8.70997,-5.3833 0.26495,-24.8442 0.26495,-24.84421 16.54255,-9.94467 c 9.0984,-5.46958 18.98281,-11.25628 21.96535,-12.85933 l 5.4228,-2.91466 21.01048,12.20873 c 11.55576,6.71479 21.21794,12.5444 21.47151,12.95468 0.25357,0.41029 0.76414,5.05797 1.1346,10.32818 l 0.67356,9.58221 h 43.07198 43.07199 v -10.03124 -10.03124 l -3.72575,-4.19922 c -14.94677,-16.84625 -22.55722,-25.12188 -37.53398,-40.81462 -9.3872,-9.83597 -18.8097,-19.77664 -20.93888,-22.0904 l -3.87125,-4.20681 -8.19891,2.94023 c -7.64076,2.74006 -8.68914,2.87739 -15.39975,2.01728 -3.96045,-0.50762 -8.64739,-1.43218 -10.41542,-2.05457 -2.7487,-0.96761 -3.06763,-1.40625 -2.20049,-3.0265 1.1003,-2.05594 0.0205,-2.5608 -1.73103,-0.80931 -1.56884,1.56883 -4.20734,-0.10508 -9.57364,-6.07369 -6.42968,-7.15135 -8.88264,-14.22646 -8.43219,-24.32107 0.59392,-13.30982 7.53259,-24.62612 19.18884,-31.29515 4.85417,-2.77728 5.90562,-2.9817 15.33676,-2.9817 9.02179,0 10.73123,0.2967 15.68496,2.72231 11.6082,5.68397 19.30275,15.5913 20.71029,26.6661 0.75074,5.90697 -0.79603,14.39017 -4.12927,22.64679 -1.29581,3.20979 -2.0295,6.39699 -1.63043,7.08268 0.9645,1.65719 26.51634,29.64475 36.25772,39.71397 4.24228,4.38504 7.97923,8.97876 8.30434,10.20826 0.32512,1.22949 1.09216,2.23544 1.70457,2.23544 0.6124,0 4.73792,3.60565 9.16783,8.01255 l 8.05438,8.01253 7.48977,0.56646 c 4.11936,0.31155 9.0503,0.27368 10.95762,-0.0841 l 3.46786,-0.65057 0.72822,-35.12092 c 0.40053,-19.31651 0.40105,-40.87964 0.001,-47.91807 l -0.72706,-12.79715 -18.99242,-10.96991 -18.99241,-10.96991 -0.26696,-21.90091 c -0.14682,-12.04551 0.0855,-23.59723 0.51625,-25.67049 0.76172,-3.66618 1.33996,-4.09305 21.08257,-15.56384 11.58485,-6.731 21.38651,-11.79011 22.83174,-11.78457 3.62535,0.0139 10.2574,3.32286 28.61259,14.27582 l 16.14489,9.63402 v 11.7279 c 0,6.45034 0.29056,17.78638 0.64569,25.19119 l 0.64569,13.46329 -4.12305,2.60277 c -2.46057,1.55329 -4.12305,3.35926 -4.12305,4.47892 0,2.51634 3.74376,7.35272 39.0747,50.47869 16.66274,20.33902 31.29782,38.44613 32.5224,40.23804 3.99676,5.84832 13.21356,14.68401 15.30583,14.67292 1.10998,-0.006 6.4703,-2.477 11.91181,-5.4914 5.44151,-3.01438 10.35949,-5.30063 10.92884,-5.08054 1.00661,0.38911 29.94945,17.23453 39.64415,23.07385 l 4.82888,2.90852 -0.60637,10.33826 c -0.33349,5.68604 -0.60636,17.54547 -0.60636,26.35428 v 16.01603 l -20.61578,11.83923 c -11.33868,6.51159 -21.3291,12.26481 -22.20094,12.78495 -1.18532,0.70717 -4.13085,-0.49567 -11.67754,-4.76864 -7.38455,-4.18117 -10.72139,-5.55648 -12.43678,-5.12595 -2.40844,0.60449 -45.75493,53.2162 -49.6834,60.30313 l -1.96776,3.54984 3.15656,6.74542 c 2.83263,6.05318 3.15432,7.67708 3.13474,15.82403 -0.0162,6.71866 -0.5012,10.11168 -1.86598,13.05275 -2.57307,5.54494 -7.79172,12.41914 -9.42817,12.41914 -0.7525,0 -1.58848,0.84238 -1.85771,1.87195 -0.29325,1.12138 -3.51651,3.36795 -8.039,5.60309 -7.50978,3.71153 -7.59531,3.7275 -16.268,3.03763 -4.79521,-0.38144 -9.67162,-0.92613 -10.83648,-1.21042 -1.83361,-0.44749 -3.60093,1.81938 -13.1643,16.88534 -6.0755,9.57123 -11.04635,18.11459 -11.04635,18.98526 0,0.87066 1.11772,4.23861 2.48383,7.48433 6.11149,14.5202 -0.32319,29.009 -14.79153,33.3057 -5.97725,1.775 -7.66031,1.7574 -13.85185,-0.1448 z m 72.12282,-89.36877 c 6.2582,-2.13239 12.08535,-8.58985 14.14511,-15.67519 1.42463,-4.90056 1.43708,-6.05459 0.11971,-11.09938 -0.80864,-3.09658 -2.60934,-7.35145 -4.00157,-9.45524 -4.99273,-7.54453 -15.88465,-11.4352 -24.92605,-8.90376 -5.59568,1.56669 -13.09598,8.02862 -15.52471,13.3754 -2.26171,4.97909 -2.41676,14.18432 -0.32332,19.19586 4.70994,11.27523 18.10364,16.78986 30.51083,12.56231 z m -44.32699,-28.9875 c 4.20228,-12.58867 10.84122,-20.59896 21.06467,-25.41581 5.74462,-2.70663 7.64696,-3.10578 14.55649,-3.05433 5.8123,0.0433 9.37985,0.64724 13.27552,2.24744 4.17636,1.71549 5.63292,1.93457 6.74208,1.01405 1.4696,-1.21967 41.39755,-49.84347 46.43161,-56.5439 3.48215,-4.6348 3.05085,-6.12008 -2.81008,-9.67708 l -4.46119,-2.7075 -0.0314,-9.58063 c -0.0239,-7.29544 -0.36477,-9.70857 -1.42902,-10.11696 -3.48818,-1.33853 -22.08146,-1.8535 -42.67675,-1.18198 l -22.49226,0.73337 v 14.28185 14.28184 l -31.97684,0.26215 -31.97684,0.26215 -14.39498,15.39974 c -23.8404,25.50444 -48.8234,53.98354 -48.8234,55.65569 0,0.86446 0.37737,1.99647 0.83862,2.51559 0.46124,0.51912 1.84484,3.49098 3.07466,6.60413 2.16616,5.48335 2.36511,5.67203 6.36449,6.036 2.27065,0.20664 23.03199,0.45382 46.13633,0.54929 39.21337,0.16204 42.04651,0.0579 42.58829,-1.5651 z m 153.35466,-94.45892 13.41268,-7.67442 0.26981,-18.47092 0.26982,-18.47091 -12.28788,-7.08284 c -6.75833,-3.89557 -13.58608,-7.328 -15.17278,-7.62764 -2.31908,-0.43794 -5.02939,0.73341 -13.81822,5.97204 -6.01331,3.58426 -12.12381,7.51534 -13.5789,8.73573 l -2.64559,2.21889 -0.33055,16.81012 -0.33055,16.81012 13.90944,8.24022 c 7.6502,4.53211 14.58008,8.23432 15.39975,8.22712 0.81966,-0.007 7.526,-3.46658 14.90297,-7.68751 z m -139.09444,-26.0068 v -21.85769 h -21.85769 -21.8577 v 17.24813 c 0,9.48647 0.28432,19.32244 0.63181,21.8577 l 0.63181,4.60956 h 21.22588 21.22589 z m 79.84986,-8.19663 c 0.32949,-1.2295 0.60519,-5.89043 0.61265,-10.35765 l 0.0136,-8.12219 4.22251,-2.32279 c 5.72398,-3.14874 5.97958,-5.95249 1.12469,-12.33638 -4.81742,-6.33458 -73.5003,-89.98987 -78.50806,-95.62227 l -3.84218,-4.32144 -9.43638,5.4543 -9.43639,5.45429 -0.25794,47.17571 -0.25794,47.1757 3.11435,0.62288 c 1.71288,0.34257 8.42352,0.62286 14.91253,0.62286 h 11.79819 v 13.82666 c 0,10.13169 0.33188,13.96056 1.24191,14.32777 0.68306,0.27561 15.38486,0.53641 32.67067,0.57955 l 31.42876,0.0784 z"
         id="path75" />
    </g>
  </g>
</svg>
